# Blender 3.1.0
# www.blender.org
mtllib SmartDoorFrame1.mtl
o SmartDorframe.002
v -1.000000 0.000000 0.025000
v -1.000000 2.000000 0.025000
v -1.000000 0.000000 -0.025000
v -1.000000 2.000000 -0.025000
v 1.000000 0.000000 0.025000
v 1.000000 2.000000 0.025000
v 1.000000 0.000000 -0.025000
v 1.000000 2.000000 -0.025000
v -1.000000 0.100000 0.025000
v -1.000000 0.100000 -0.025000
v 1.000000 0.100000 -0.025000
v 1.000000 0.100000 0.025000
v 1.000000 0.000000 0.125000
v -1.000000 0.000000 0.125000
v 1.000000 0.100000 0.086351
v 1.000000 0.061350 0.125000
v -1.000000 0.061350 0.125000
v -1.000000 0.100000 0.086351
v 0.403441 0.002653 -0.025000
v -0.403441 0.003417 -0.025000
v -0.403441 2.000000 -0.025000
v 0.403441 2.000000 -0.025000
v 0.403441 2.000000 0.025000
v -0.403441 2.000000 0.025000
v 0.403441 0.100000 0.025000
v -0.403441 0.100000 0.025000
v -0.403441 0.100000 -0.025000
v 0.403441 0.100000 -0.025000
v -0.403441 0.003417 0.125000
v 0.403441 0.002653 0.125000
v 0.403441 0.100000 0.086351
v -0.403441 0.100000 0.086351
v -0.403441 0.061350 0.125000
v 0.403441 0.061350 0.125000
v -1.000000 1.810000 0.025000
v -1.000000 1.810000 -0.025000
v 1.000000 1.810000 -0.025000
v 1.000000 1.810000 0.025000
v 0.403441 1.810000 0.025000
v -0.403441 1.810000 0.025000
v -0.403441 1.810000 -0.025000
v 0.403441 1.810000 -0.025000
v 0.403441 0.100000 0.025000
v -0.403441 0.100000 0.025000
v 0.403441 0.100000 0.086351
v -0.403441 0.100000 0.086351
v 0.403441 0.100000 0.025000
v -0.403441 0.100000 0.025000
v 0.403441 0.100000 0.086351
v -0.403441 0.100000 0.086351
v 0.403441 0.003124 0.025000
v -0.403441 0.002360 0.025000
v 0.403441 0.003124 0.086351
v -0.403441 0.002360 0.086351
vn -1.0000 -0.0000 -0.0000
vn -0.0000 -0.0000 -1.0000
vn 1.0000 -0.0000 -0.0000
vn -0.0000 -0.0000 1.0000
vn -0.0000 1.0000 -0.0000
vn -0.0000 0.7071 0.7071
vn -0.0000 -1.0000 -0.0000
vt 0.375000 0.000000
vt 0.625000 0.000000
vt 0.625000 1.000000
vt 0.875000 0.750000
vt 0.375000 0.250000
vt 0.875000 0.500000
vt 0.625000 0.250000
vt 0.375000 0.750000
vt 0.625000 0.750000
vt 0.375000 0.500000
vt 0.625000 0.500000
vt 0.387500 1.000000
vt 0.387500 0.000000
vt 0.387500 0.250000
vt 0.387500 0.500000
vt 0.387500 0.750000
vt 0.375000 0.750000
vt 0.375000 1.000000
vt 0.375000 0.000000
vt 0.387500 0.750000
vt 0.382669 0.750000
vt 0.382669 0.000000
vt 0.382669 1.000000
vt 0.387500 0.000000
vt 0.387500 1.000000
vt 0.375000 0.416667
vt 0.375000 0.333333
vt 0.791667 0.500000
vt 0.625000 0.333333
vt 0.708333 0.500000
vt 0.625000 0.416667
vt 0.708333 0.750000
vt 0.625000 0.833333
vt 0.791667 0.750000
vt 0.625000 0.916667
vt 0.387500 0.833333
vt 0.387500 0.916667
vt 0.387500 0.333333
vt 0.387500 0.416667
vt 0.375000 0.916667
vt 0.375000 0.833333
vt 0.387500 0.833333
vt 0.387500 0.916667
vt 0.382669 0.916667
vt 0.382669 0.833333
vt 0.601250 1.000000
vt 0.601250 0.000000
vt 0.601250 0.250000
vt 0.601250 0.500000
vt 0.601250 0.750000
vt 0.601250 0.833333
vt 0.601250 0.916667
vt 0.601250 0.333333
vt 0.601250 0.416667
vt 0.387500 0.833333
vt 0.387500 0.916667
vt 0.387500 0.833333
vt 0.387500 0.916667
vt 0.387500 0.833333
vt 0.387500 0.916667
vt 0.387500 0.833333
vt 0.387500 0.916667
vt 0.387500 0.833333
vt 0.387500 0.916667
vt 0.387500 0.833333
vt 0.387500 0.916667
s 0
f 35/47/1 2/2/1 4/7/1 36/48/1
f 42/54/2 22/31/2 8/11/2 37/49/2
f 37/49/3 8/11/3 6/9/3 38/50/3
f 40/52/4 24/35/4 2/3/4 35/46/4
f 21/28/5 4/6/5 2/4/5 24/34/5
f 7/10/3 11/15/3 12/16/3 5/8/3
f 19/26/2 28/39/2 11/15/2 7/10/2
f 1/1/1 9/13/1 10/14/1 3/5/1
f 26/37/5 9/12/5 18/25/5 32/43/5
f 29/40/4 33/44/4 17/23/4 14/18/4
f 9/13/1 1/1/1 14/19/1 17/22/1 18/24/1
f 32/43/6 18/25/6 17/23/6 33/44/6
f 5/8/3 12/16/3 15/20/3 16/21/3 13/17/3
f 15/20/6 31/42/6 34/45/6 16/21/6
f 13/17/4 16/21/4 34/45/4 30/41/4
f 12/16/5 25/36/5 31/42/5 15/20/5
f 3/5/2 10/14/2 27/38/2 20/27/2
f 8/11/5 22/30/5 23/32/5 6/9/5
f 22/30/5 21/28/5 24/34/5 23/32/5
f 38/50/4 6/9/4 23/33/4 39/51/4
f 39/51/4 23/33/4 24/35/4 40/52/4
f 36/48/2 4/7/2 21/29/2 41/53/2
f 41/53/2 21/29/2 22/31/2 42/54/2
f 10/14/2 36/48/2 41/53/2 27/38/2
f 12/16/4 38/50/4 39/51/4 25/36/4
f 26/37/4 40/52/4 35/46/4 9/12/4
f 11/15/3 37/49/3 38/50/3 12/16/3
f 28/39/2 42/54/2 37/49/2 11/15/2
f 9/13/1 35/47/1 36/48/1 10/14/1
f 26/37/3 27/38/3 41/53/3 40/52/3
f 25/36/1 39/51/1 42/54/1 28/39/1
f 41/53/7 42/54/7 39/51/7 40/52/7
f 26/37/5 32/43/5 46/58/5 44/56/5
f 31/42/5 25/36/5 43/55/5 45/57/5
f 44/56/5 46/58/5 50/62/5 48/60/5
f 45/57/5 43/55/5 47/59/5 49/61/5
f 48/60/3 50/62/3 54/66/3 52/64/3
f 49/61/1 47/59/1 51/63/1 53/65/1
f 34/45/1 49/61/1 53/65/1 30/41/1
f 29/40/3 54/66/3 50/62/3 33/44/3
f 27/38/3 48/60/3 52/64/3 20/27/3
f 19/26/1 51/63/1 47/59/1 28/39/1
