# Blender 3.1.0
# www.blender.org
mtllib SmartWindow1.mtl
o Smartwindow.001
v -1.000000 0.000000 0.025000
v -0.923846 1.923846 0.025000
v -1.000000 0.000000 -0.025000
v -0.923846 1.923846 -0.025000
v 1.000000 0.000000 0.025000
v 0.923846 1.923846 0.025000
v 1.000000 0.000000 -0.025000
v 0.923846 1.923846 -0.025000
v -0.923846 0.176154 0.025000
v -0.923846 0.176154 -0.025000
v 0.923846 0.176154 -0.025000
v 0.923846 0.176154 0.025000
v 1.000000 0.000000 0.125000
v -1.000000 0.000000 0.125000
v 1.000000 0.100000 0.086351
v 1.000000 0.061350 0.125000
v -1.000000 0.061350 0.125000
v -1.000000 0.100000 0.086351
v -1.000000 0.100000 0.025000
v -1.000000 2.000000 0.025000
v -1.000000 2.000000 -0.025000
v 1.000000 2.000000 -0.025000
v 1.000000 2.000000 0.025000
v -1.000000 0.100000 -0.025000
v 1.000000 0.100000 -0.025000
v 1.000000 0.100000 0.025000
vn -1.0000 -0.0000 -0.0000
vn -0.0000 1.0000 -0.0000
vn 1.0000 -0.0000 -0.0000
vn -0.0000 -0.0000 -1.0000
vn -0.0000 -0.0000 1.0000
vn -0.0000 0.7071 0.7071
vn -0.0000 -1.0000 -0.0000
vt 0.375000 0.000000
vt 0.615481 0.990481
vt 0.375000 0.250000
vt 0.615481 0.259519
vt 0.375000 0.750000
vt 0.615481 0.759519
vt 0.375000 0.500000
vt 0.615481 0.490481
vt 0.397019 0.990481
vt 0.397019 0.259519
vt 0.397019 0.490481
vt 0.397019 0.759519
vt 0.375000 0.750000
vt 0.375000 1.000000
vt 0.375000 0.000000
vt 0.387500 0.750000
vt 0.382669 0.750000
vt 0.382669 0.000000
vt 0.382669 1.000000
vt 0.387500 0.000000
vt 0.387500 1.000000
vt 0.387500 0.000000
vt 0.387500 1.000000
vt 0.625000 0.000000
vt 0.875000 0.750000
vt 0.625000 1.000000
vt 0.875000 0.500000
vt 0.625000 0.250000
vt 0.625000 0.500000
vt 0.625000 0.750000
vt 0.387500 0.250000
vt 0.387500 0.500000
vt 0.387500 0.750000
s 0
f 19/22/1 20/24/1 21/28/1 24/31/1
f 12/12/2 11/11/2 10/10/2 9/9/2
f 25/32/3 22/29/3 23/30/3 26/33/3
f 11/11/1 12/12/1 6/6/1 8/8/1
f 22/29/2 21/27/2 20/25/2 23/30/2
f 7/7/3 25/32/3 26/33/3 5/5/3
f 3/3/4 24/31/4 25/32/4 7/7/4
f 1/1/1 19/22/1 24/31/1 3/3/1
f 26/33/2 19/23/2 18/21/2 15/16/2
f 13/13/5 16/17/5 17/19/5 14/14/5
f 19/22/1 1/1/1 14/15/1 17/18/1 18/20/1
f 15/16/6 18/21/6 17/19/6 16/17/6
f 5/5/3 26/33/3 15/16/3 16/17/3 13/13/3
f 9/9/5 2/2/5 20/26/5 19/23/5
f 8/8/4 4/4/4 21/28/4 22/29/4
f 2/2/5 6/6/5 23/30/5 20/26/5
f 4/4/4 10/10/4 24/31/4 21/28/4
f 11/11/4 8/8/4 22/29/4 25/32/4
f 6/6/5 12/12/5 26/33/5 23/30/5
f 12/12/5 9/9/5 19/23/5 26/33/5
f 10/10/4 11/11/4 25/32/4 24/31/4
f 4/4/7 8/8/7 6/6/7 2/2/7
