# Blender 3.1.0
# www.blender.org
mtllib SmartDoor1.mtl
o Smartdoor.001
v -0.348073 0.052486 0.004739
v -0.348073 1.747514 0.004739
v -0.348073 0.052486 -0.004739
v -0.348073 1.747514 -0.004739
v 0.348074 0.052486 0.004739
v 0.348074 1.747514 0.004739
v 0.348074 0.052486 -0.004739
v 0.348074 1.747514 -0.004739
v -0.348073 0.747514 0.004739
v -0.348073 0.747514 -0.004739
v 0.348074 0.747514 -0.004739
v 0.348074 0.747514 0.004739
v -0.348073 0.951486 0.004739
v -0.348073 0.951486 -0.004739
v 0.348074 0.951486 -0.004739
v 0.348074 0.951486 0.004739
v -0.348073 1.046564 0.004739
v -0.348073 1.046564 -0.004739
v 0.348074 1.046564 -0.004739
v 0.348074 1.046564 0.004739
v -0.348073 1.256679 0.004739
v -0.348073 1.256679 -0.004739
v 0.348074 1.256679 -0.004739
v 0.348074 1.256679 0.004739
v -0.400560 1.204193 0.025000
v -0.400560 1.800000 0.025000
v -0.400560 0.800000 -0.025000
v -0.400560 0.000000 -0.025000
v 0.400560 0.000000 -0.025000
v -0.400560 1.800000 -0.025000
v 0.400560 1.800000 -0.025000
v 0.400560 0.800000 -0.025000
v 0.400560 0.800000 0.025000
v 0.400560 0.000000 0.025000
v -0.400560 0.000000 0.025000
v 0.400560 1.800000 0.025000
v -0.400560 0.800000 0.025000
v 0.400560 0.899000 0.025000
v -0.400560 0.899000 0.025000
v -0.400560 0.899000 -0.025000
v 0.400560 0.899000 -0.025000
v -0.400560 1.099050 -0.025000
v 0.400560 1.099050 -0.025000
v 0.400560 1.099050 0.025000
v -0.400560 1.099050 0.025000
v -0.400560 1.204193 -0.025000
v 0.400560 1.204193 -0.025000
v 0.400560 1.204193 0.025000
v -0.348073 1.256679 0.025000
v -0.348073 1.747514 0.025000
v -0.348073 0.747514 -0.025000
v -0.348073 0.052486 -0.025000
v 0.348074 0.052486 -0.025000
v -0.348073 1.747514 -0.025000
v 0.348074 1.747514 -0.025000
v 0.348074 0.747514 -0.025000
v 0.348074 0.747514 0.025000
v 0.348074 0.052486 0.025000
v -0.348073 0.052486 0.025000
v 0.348074 1.747514 0.025000
v -0.348073 0.747514 0.025000
v 0.348074 0.951486 0.025000
v -0.348073 0.951486 0.025000
v -0.348073 0.951486 -0.025000
v 0.348074 0.951486 -0.025000
v -0.348073 1.046564 -0.025000
v 0.348074 1.046564 -0.025000
v 0.348074 1.046564 0.025000
v -0.348073 1.046564 0.025000
v -0.348073 1.256679 -0.025000
v 0.348074 1.256679 -0.025000
v 0.348074 1.256679 0.025000
vn -1.0000 -0.0000 -0.0000
vn -0.0000 -0.0000 -1.0000
vn 1.0000 -0.0000 -0.0000
vn -0.0000 -0.0000 1.0000
vn -0.0000 -1.0000 -0.0000
vn -0.0000 1.0000 -0.0000
vt 0.382381 0.983621
vt 0.620830 0.983621
vt 0.382381 0.266379
vt 0.620830 0.266379
vt 0.382381 0.766379
vt 0.620830 0.766379
vt 0.382381 0.483621
vt 0.620830 0.483621
vt 0.480119 0.983621
vt 0.480119 0.266379
vt 0.480119 0.483621
vt 0.480119 0.766379
vt 0.519107 0.983621
vt 0.519107 0.266379
vt 0.519107 0.483621
vt 0.519107 0.766379
vt 0.551455 0.983621
vt 0.551455 0.266379
vt 0.551455 0.483621
vt 0.551455 0.766379
vt 0.581835 0.983621
vt 0.581835 0.266379
vt 0.581836 0.483621
vt 0.581836 0.766379
vt 0.577666 0.000000
vt 0.577666 1.000000
vt 0.625000 0.000000
vt 0.875000 0.750000
vt 0.625000 1.000000
vt 0.487500 0.250000
vt 0.125000 0.500000
vt 0.375000 0.250000
vt 0.375000 0.500000
vt 0.875000 0.500000
vt 0.625000 0.250000
vt 0.625000 0.500000
vt 0.487500 0.500000
vt 0.487500 0.750000
vt 0.375000 0.750000
vt 0.125000 0.750000
vt 0.375000 0.000000
vt 0.375000 1.000000
vt 0.625000 0.750000
vt 0.487500 0.000000
vt 0.487500 1.000000
vt 0.501250 0.750000
vt 0.501250 0.000000
vt 0.501250 1.000000
vt 0.501250 0.250000
vt 0.501250 0.500000
vt 0.569312 0.250000
vt 0.569313 0.500000
vt 0.569313 0.750000
vt 0.569313 0.000000
vt 0.569312 1.000000
vt 0.577666 0.250000
vt 0.577666 0.500000
vt 0.577666 0.750000
vt 0.581835 0.983621
vt 0.620830 0.983621
vt 0.480119 0.266379
vt 0.382381 0.266379
vt 0.382381 0.483621
vt 0.620830 0.266379
vt 0.620830 0.483621
vt 0.480119 0.483621
vt 0.480119 0.766379
vt 0.382381 0.766379
vt 0.382381 0.983621
vt 0.620830 0.766379
vt 0.480119 0.983621
vt 0.519107 0.766379
vt 0.519107 0.983621
vt 0.519107 0.266379
vt 0.519107 0.483621
vt 0.551455 0.266379
vt 0.551455 0.483621
vt 0.551455 0.766379
vt 0.551455 0.983621
vt 0.581835 0.266379
vt 0.581836 0.483621
vt 0.581836 0.766379
s 0
f 25/25/1 26/27/1 30/35/1 46/56/1
f 22/22/2 4/4/2 8/8/2 23/23/2
f 47/57/3 31/36/3 36/43/3 48/58/3
f 24/24/4 6/6/4 2/2/4 21/21/4
f 28/31/5 29/33/5 34/39/5 35/40/5
f 31/36/6 30/34/6 26/28/6 36/43/6
f 5/5/4 12/12/4 9/9/4 1/1/4
f 29/33/3 32/37/3 33/38/3 34/39/3
f 3/3/2 10/10/2 11/11/2 7/7/2
f 35/41/1 37/44/1 27/30/1 28/32/1
f 33/38/4 38/46/4 39/48/4 37/45/4
f 32/37/3 41/50/3 38/46/3 33/38/3
f 27/30/2 40/49/2 41/50/2 32/37/2
f 37/44/1 39/47/1 40/49/1 27/30/1
f 41/50/3 43/52/3 44/53/3 38/46/3
f 14/14/2 18/18/2 19/19/2 15/15/2
f 39/47/1 45/54/1 42/51/1 40/49/1
f 44/53/4 48/58/4 25/26/4 45/55/4
f 43/52/3 47/57/3 48/58/3 44/53/3
f 42/51/2 46/56/2 47/57/2 43/52/2
f 45/54/1 25/25/1 46/56/1 42/51/1
f 16/16/4 20/20/4 17/17/4 13/13/4
f 49/59/4 50/60/4 26/29/4 25/26/4
f 51/61/2 52/62/2 28/32/2 27/30/2
f 52/62/2 53/63/2 29/33/2 28/32/2
f 55/65/2 54/64/2 30/35/2 31/36/2
f 53/63/2 56/66/2 32/37/2 29/33/2
f 57/67/4 58/68/4 34/39/4 33/38/4
f 58/68/4 59/69/4 35/42/4 34/39/4
f 50/60/4 60/70/4 36/43/4 26/29/4
f 59/69/4 61/71/4 37/45/4 35/42/4
f 61/71/4 57/67/4 33/38/4 37/45/4
f 56/66/2 51/61/2 27/30/2 32/37/2
f 62/72/4 63/73/4 39/48/4 38/46/4
f 64/74/2 65/75/2 41/50/2 40/49/2
f 66/76/2 64/74/2 40/49/2 42/51/2
f 65/75/2 67/77/2 43/52/2 41/50/2
f 68/78/4 62/72/4 38/46/4 44/53/4
f 63/73/4 69/79/4 45/55/4 39/48/4
f 69/79/4 68/78/4 44/53/4 45/55/4
f 67/77/2 66/76/2 42/51/2 43/52/2
f 54/64/2 70/80/2 46/56/2 30/35/2
f 71/81/2 55/65/2 31/36/2 47/57/2
f 60/70/4 72/82/4 48/58/4 36/43/4
f 72/82/4 49/59/4 25/26/4 48/58/4
f 70/80/2 71/81/2 47/57/2 46/56/2
f 21/21/3 2/2/3 50/60/3 49/59/3
f 10/10/3 3/3/3 52/62/3 51/61/3
f 3/3/6 7/7/6 53/63/6 52/62/6
f 8/8/5 4/4/5 54/64/5 55/65/5
f 7/7/1 11/11/1 56/66/1 53/63/1
f 12/12/1 5/5/1 58/68/1 57/67/1
f 5/5/6 1/1/6 59/69/6 58/68/6
f 2/2/5 6/6/5 60/70/5 50/60/5
f 1/1/3 9/9/3 61/71/3 59/69/3
f 9/9/5 12/12/5 57/67/5 61/71/5
f 11/11/5 10/10/5 51/61/5 56/66/5
f 16/16/6 13/13/6 63/73/6 62/72/6
f 14/14/6 15/15/6 65/75/6 64/74/6
f 18/18/3 14/14/3 64/74/3 66/76/3
f 15/15/1 19/19/1 67/77/1 65/75/1
f 20/20/1 16/16/1 62/72/1 68/78/1
f 13/13/3 17/17/3 69/79/3 63/73/3
f 17/17/5 20/20/5 68/78/5 69/79/5
f 19/19/5 18/18/5 66/76/5 67/77/5
f 4/4/3 22/22/3 70/80/3 54/64/3
f 23/23/1 8/8/1 55/65/1 71/81/1
f 6/6/1 24/24/1 72/82/1 60/70/1
f 24/24/6 21/21/6 49/59/6 72/82/6
f 22/22/6 23/23/6 71/81/6 70/80/6
