# Blender 3.1.0
# www.blender.org
mtllib SmartFloor2.mtl
o Smartfloor.002
v -1.000000 -0.025000 1.000000
v -1.000000 0.025000 1.000000
v -1.000000 -0.025000 -1.000000
v -1.000000 0.025000 -1.000000
v 1.000000 -0.025000 1.000000
v 1.000000 0.025000 1.000000
v 1.000000 -0.025000 -1.000000
v 1.000000 0.025000 -1.000000
v -0.899668 0.099758 0.899668
v -0.899668 0.099758 -0.899668
v 0.899668 0.099758 -0.899668
v 0.899668 0.099758 0.899668
vn -1.0000 -0.0000 -0.0000
vn -0.0000 -0.0000 -1.0000
vn 1.0000 -0.0000 -0.0000
vn -0.0000 -0.0000 1.0000
vn -0.0000 0.0008 0.9994
vn -0.0000 0.0250 -0.0000
vn -0.0000 0.0008 -0.9994
vn 0.9994 0.0008 -0.0000
vn -0.9994 0.0008 -0.0000
vt 0.375000 0.000000
vt 0.375000 1.000000
vt 0.625000 1.000000
vt 0.625000 0.000000
vt 0.375000 0.250000
vt 0.625000 0.250000
vt 0.375000 0.750000
vt 0.625000 0.750000
vt 0.375000 0.500000
vt 0.625000 0.500000
vt 0.864096 0.739096
vt 0.864096 0.510904
vt 0.635904 0.510904
vt 0.635904 0.739096
s 0
f 1/1/1 2/4/1 4/6/1 3/5/1
f 3/5/2 4/6/2 8/10/2 7/9/2
f 7/9/3 8/10/3 6/8/3 5/7/3
f 5/7/4 6/8/4 2/3/4 1/2/4
f 12/14/5 9/11/5 2/3/5 6/8/5
f 11/13/6 10/12/6 9/11/6 12/14/6
f 10/12/7 11/13/7 8/10/7 4/6/7
f 11/13/8 12/14/8 6/8/8 8/10/8
f 9/11/9 10/12/9 4/6/9 2/4/9
