# Blender 3.1.0
# www.blender.org
mtllib SmartDoor2.mtl
o Smartdoor.002
v 0.634469 1.665649 0.314802
v 0.663830 1.665649 0.285974
v 0.270305 1.665649 -0.015401
v 0.682424 1.665649 0.267717
v 0.226523 1.723234 -0.071364
v 0.211006 -0.003063 -0.062137
v 0.221936 -0.003063 -0.072869
v 0.213075 1.723234 -0.058160
v 0.656355 0.054522 -0.625599
v 0.656355 1.665649 -0.625599
v 0.682424 0.054522 -0.600002
v 0.682424 1.665649 -0.600002
v 0.226523 1.723234 -0.260921
v 0.211006 -0.003063 -0.270148
v 0.221936 -0.003063 -0.259416
v 0.213075 1.723234 -0.274125
v -0.656283 0.054522 0.293314
v 0.270305 0.054522 -0.015401
v -0.682353 0.054522 0.267717
v 0.663830 0.054522 0.285974
v -0.226452 1.723234 -0.071364
v -0.210935 -0.003063 -0.062137
v -0.221865 -0.003063 -0.072869
v -0.213003 1.723234 -0.058160
v -0.656283 0.054522 -0.625599
v 0.280654 1.665649 -0.306723
v -0.682353 0.054522 -0.600002
v -0.682353 1.665649 -0.600002
v -0.226452 1.723234 -0.260921
v -0.210935 -0.003063 -0.270148
v -0.221865 -0.003063 -0.259416
v -0.213003 1.723234 -0.274125
v 0.280654 0.054522 -0.306723
v 0.674180 0.054522 -0.608097
v 0.674180 1.665649 -0.608097
v 0.262829 1.665649 -0.324224
v -0.273515 0.054522 -0.313663
v -0.262758 1.665649 -0.008061
v -0.273515 1.665649 -0.313663
v -0.667040 0.054522 -0.615037
v -0.667040 1.665649 -0.615037
v 0.262829 0.054522 -0.008061
v -0.665738 1.665649 0.284031
v 0.262829 0.054522 -0.324224
v -0.272213 1.665649 -0.017344
v -0.262758 0.054522 -0.008061
v -0.665738 0.054522 0.284031
v -0.272213 0.054522 -0.017344
v 0.695741 1.723234 0.323478
v 0.695741 -0.003063 0.323478
v 0.249512 1.723234 -0.063821
v 0.721811 1.723234 0.297881
v 0.721811 -0.003063 0.297881
v 0.223443 -0.003063 -0.038224
v 0.249512 -0.003063 -0.063821
v 0.223443 1.723234 -0.038224
v 0.695741 1.723234 -0.655762
v 0.695741 -0.003063 -0.655762
v 0.249512 1.723234 -0.268464
v 0.721811 1.723234 -0.630165
v 0.721811 -0.003063 -0.630165
v 0.223443 -0.003063 -0.294061
v 0.249512 -0.003063 -0.268464
v 0.223443 1.723234 -0.294061
v -0.695670 1.723234 0.323478
v -0.695670 -0.003063 0.323478
v -0.249441 1.723234 -0.063821
v -0.721740 1.723234 0.297881
v -0.721740 -0.003063 0.297881
v -0.223371 -0.003063 -0.038224
v -0.249441 -0.003063 -0.063821
v -0.223371 1.723234 -0.038224
v -0.695670 1.723234 -0.655762
v -0.695670 -0.003063 -0.655762
v -0.249441 1.723234 -0.268464
v -0.721740 1.723234 -0.630165
v -0.721740 -0.003063 -0.630165
v -0.223371 -0.003063 -0.294061
v -0.249441 -0.003063 -0.268464
v -0.223371 1.723234 -0.294061
v 0.634469 0.054522 0.314802
v 0.309233 0.054522 -0.278663
v 0.288899 1.665649 -0.033658
v 0.309233 1.665649 -0.278663
v 0.682424 0.054522 0.267717
v 0.702758 0.054522 -0.580037
v 0.288899 0.054522 -0.033658
v 0.240944 0.054522 0.013427
v 0.702758 1.665649 -0.580037
v -0.631674 0.054522 -0.649762
v 0.288899 1.665649 -0.298627
v -0.238148 0.054522 -0.348388
v -0.238148 1.665649 -0.348388
v -0.631674 1.665649 -0.649762
v 0.288899 0.054522 -0.298627
v -0.706803 0.054522 0.243711
v -0.656283 1.665649 0.293314
v -0.313278 0.054522 -0.057664
v -0.288828 1.665649 -0.033658
v -0.682353 1.665649 0.267717
v -0.706803 1.665649 0.243711
v -0.313278 1.665649 -0.057664
v -0.288828 0.054522 -0.033658
v 0.262829 1.665649 -0.008061
v -0.656283 1.665649 -0.625599
v 0.656355 1.665649 0.293314
v -0.288828 1.665649 -0.298627
v 0.656355 0.054522 0.293314
v 0.240944 1.665649 0.013427
v -0.262758 0.054522 -0.324224
v -0.288828 0.054522 -0.298627
v -0.262758 1.665649 -0.324224
v -0.000000 1.636262 -1.033333
v -0.000000 1.818200 -1.033333
v 0.382683 1.636262 -0.967326
v 0.382683 1.818200 -0.967326
v 0.707107 1.636262 -0.779352
v 0.707107 1.818200 -0.779352
v 0.923880 1.636262 -0.498030
v 0.923880 1.818200 -0.498030
v 1.000000 1.636262 -0.166188
v 1.000000 1.818200 -0.166188
v 0.923880 1.636262 0.165654
v 0.923880 1.818200 0.165654
v 0.707107 1.636262 0.446976
v 0.707107 1.818200 0.446976
v 0.382683 1.636262 0.634950
v 0.382683 1.818200 0.634950
v -0.000000 1.636262 0.700957
v -0.000000 1.818200 0.700957
v -0.382683 1.636262 0.634950
v -0.382683 1.818200 0.634950
v -0.707107 1.636262 0.446976
v -0.707107 1.818200 0.446976
v -0.923880 1.636262 0.165654
v -0.923880 1.818200 0.165654
v -1.000000 1.636262 -0.166188
v -1.000000 1.818200 -0.166188
v -0.923879 1.636262 -0.498030
v -0.923879 1.818200 -0.498030
v -0.707107 1.636262 -0.779352
v -0.707107 1.818200 -0.779352
v -0.382683 1.636262 -0.967326
v -0.382683 1.818200 -0.967326
v 0.000000 1.818200 -0.166188
vn 0.7006 -0.0000 0.7135
vn -0.0000 -1.0000 -0.0000
vn -0.7006 -0.0000 -0.7136
vn -0.0000 1.0000 -0.0000
vn -0.7006 -0.0000 0.7135
vn 0.6080 -0.0000 -0.7939
vn -1.0000 -0.0000 -0.0000
vn 0.6080 -0.0000 0.7939
vn 1.0000 -0.0000 -0.0000
vn -0.0000 -0.0000 1.0000
vn -0.6080 -0.0000 0.7939
vn -0.6080 -0.0000 -0.7939
vn 0.7006 -0.0000 -0.7135
vn 0.7006 -0.0000 -0.7136
vn -0.7006 -0.0000 -0.7135
vn -0.0000 -0.0000 -1.0000
vn 0.3410 -0.0000 -0.9401
vn 0.6592 -0.0000 -0.7520
vn 0.9043 -0.0000 -0.4268
vn 0.9043 -0.0000 0.4268
vn 0.6592 -0.0000 0.7520
vn 0.3410 -0.0000 0.9401
vn -0.3410 -0.0000 0.9401
vn -0.6592 -0.0000 0.7520
vn -0.9043 -0.0000 0.4268
vn -0.9043 -0.0000 -0.4268
vn -0.6592 -0.0000 -0.7520
vn -0.3410 -0.0000 -0.9401
vt 0.616661 0.758339
vt 0.616661 0.491661
vt 0.616661 0.408339
vt 0.616661 0.491661
vt 0.628566 0.551504
vt 0.369742 0.683939
vt 0.370594 0.571500
vt 0.629472 0.703153
vt 0.383339 0.758339
vt 0.616661 0.758339
vt 0.383339 0.491661
vt 0.616661 0.491661
vt 0.656513 0.523627
vt 0.315251 0.629546
vt 0.339584 0.540575
vt 0.689517 0.643194
vt 0.383339 0.758339
vt 0.383339 0.408339
vt 0.383339 0.491661
vt 0.383339 0.491661
vt 0.660415 0.527530
vt 0.312771 0.632026
vt 0.335141 0.545018
vt 0.691340 0.645017
vt 0.383339 0.758339
vt 0.616661 0.841661
vt 0.383339 0.491661
vt 0.616661 0.491661
vt 0.688799 0.611737
vt 0.338167 0.715513
vt 0.315788 0.626306
vt 0.657865 0.731547
vt 0.383339 0.841661
vt 0.383339 0.758339
vt 0.616661 0.758339
vt 0.616661 0.841661
vt 0.383339 0.408339
vt 0.616661 0.841661
vt 0.616661 0.408339
vt 0.383339 0.491661
vt 0.616661 0.491661
vt 0.383339 0.841661
vt 0.616661 0.758339
vt 0.383339 0.841661
vt 0.616661 0.841661
vt 0.383339 0.841661
vt 0.383339 0.758339
vt 0.383339 0.841661
vt 0.625000 0.750000
vt 0.375000 0.750000
vt 0.725000 0.500000
vt 0.625000 0.400000
vt 0.625000 0.500000
vt 0.375000 0.500000
vt 0.275000 0.750000
vt 0.375000 0.850000
vt 0.275000 0.500000
vt 0.375000 0.400000
vt 0.725000 0.750000
vt 0.625000 0.850000
vt 0.625000 0.750000
vt 0.375000 0.750000
vt 0.725000 0.500000
vt 0.625000 0.400000
vt 0.625000 0.500000
vt 0.375000 0.500000
vt 0.275000 0.750000
vt 0.375000 0.850000
vt 0.275000 0.500000
vt 0.375000 0.400000
vt 0.725000 0.750000
vt 0.625000 0.850000
vt 0.625000 0.750000
vt 0.375000 0.750000
vt 0.725000 0.500000
vt 0.625000 0.400000
vt 0.625000 0.500000
vt 0.375000 0.500000
vt 0.275000 0.750000
vt 0.375000 0.850000
vt 0.275000 0.500000
vt 0.375000 0.400000
vt 0.725000 0.750000
vt 0.625000 0.850000
vt 0.625000 0.750000
vt 0.375000 0.750000
vt 0.725000 0.500000
vt 0.625000 0.400000
vt 0.625000 0.500000
vt 0.375000 0.500000
vt 0.275000 0.750000
vt 0.375000 0.850000
vt 0.275000 0.500000
vt 0.375000 0.400000
vt 0.725000 0.750000
vt 0.625000 0.850000
vt 0.383339 0.758339
vt 0.383339 0.408339
vt 0.616661 0.408339
vt 0.616661 0.408339
vt 0.383339 0.491661
vt 0.383339 0.491661
vt 0.383339 0.408339
vt 0.383339 0.841661
vt 0.616661 0.491661
vt 0.383339 0.758339
vt 0.616661 0.408339
vt 0.383339 0.841661
vt 0.616661 0.841661
vt 0.616661 0.758339
vt 0.383339 0.408339
vt 0.383339 0.491661
vt 0.616661 0.758339
vt 0.383339 0.408339
vt 0.616661 0.408339
vt 0.616661 0.491661
vt 0.616661 0.491661
vt 0.616661 0.408339
vt 0.383339 0.408339
vt 0.616661 0.841661
vt 0.616661 0.758339
vt 0.616661 0.758339
vt 0.616661 0.408339
vt 0.383339 0.758339
vt 0.616661 0.841661
vt 0.383339 0.841661
vt 0.383339 0.408339
vt 0.616661 0.841661
vt 1.000000 0.000000
vt 0.000000 0.000000
vt 1.000000 1.000000
vt 0.000000 1.000000
vt 0.937500 0.000000
vt 0.937500 1.000000
vt 0.875000 0.000000
vt 0.875000 1.000000
vt 0.812500 0.000000
vt 0.812500 1.000000
vt 0.750000 0.000000
vt 0.750000 1.000000
vt 0.687500 0.000000
vt 0.687500 1.000000
vt 0.625000 0.000000
vt 0.625000 1.000000
vt 0.562500 0.000000
vt 0.562500 1.000000
vt 0.500000 0.000000
vt 0.500000 1.000000
vt 0.437500 0.000000
vt 0.437500 1.000000
vt 0.375000 0.000000
vt 0.375000 1.000000
vt 0.312500 0.000000
vt 0.312500 1.000000
vt 0.250000 0.000000
vt 0.250000 1.000000
vt 0.187500 0.000000
vt 0.187500 1.000000
vt 0.125000 0.000000
vt 0.125000 1.000000
vt 0.062500 0.000000
vt 0.062500 1.000000
vt 0.750000 1.000000
vt 0.437500 1.000000
vt 0.125000 1.000000
vt 0.875000 1.000000
vt 0.562500 1.000000
vt 0.250000 1.000000
vt 0.687500 1.000000
vt 0.375000 1.000000
vt 0.062500 1.000000
vt 0.812500 1.000000
vt 0.500000 1.000000
vt 0.187500 1.000000
vt 0.937500 1.000000
vt 0.625000 1.000000
vt 0.312500 1.000000
vt 0.000000 1.000000
s 1
f 87/103/1 83/99/1 3/3/1 18/18/1
f 53/54/1 52/53/1 49/49/1 50/50/1
f 55/57/2 53/54/2 50/50/2 54/55/2
f 4/4/3 85/101/3 20/20/3 2/2/3
f 52/53/4 51/51/4 56/59/4 49/49/4
f 85/101/4 87/103/4 18/18/4 20/20/4
f 61/66/5 60/65/5 57/61/5 58/62/5
f 63/69/4 61/66/4 58/62/4 62/67/4
f 18/18/6 3/3/6 2/2/6 20/20/6
f 60/65/2 59/63/2 64/71/2 57/61/2
f 55/58/7 51/52/7 59/64/7 63/70/7
f 36/36/5 44/44/5 33/33/5 26/26/5
f 69/78/5 66/74/5 65/73/5 68/77/5
f 71/81/2 70/79/2 66/74/2 69/78/2
f 44/44/2 9/9/2 34/34/2 33/33/2
f 68/77/4 65/73/4 72/83/4 67/75/4
f 10/10/4 36/36/4 26/26/4 35/35/4
f 77/90/1 74/86/1 73/85/1 76/89/1
f 79/93/4 78/91/4 74/86/4 77/90/4
f 34/34/8 35/35/8 26/26/8 33/33/8
f 76/89/2 73/85/2 80/95/2 75/87/2
f 71/82/9 79/94/9 75/88/9 67/76/9
f 62/68/10 64/72/10 80/96/10 78/92/10
f 54/56/10 56/60/10 72/84/10 70/80/10
f 5/5/4 8/8/4 56/60/4 51/52/4
f 16/16/4 13/13/4 59/64/4 64/71/4
f 13/13/4 5/5/4 51/52/4 59/64/4
f 24/24/4 21/21/4 67/76/4 72/83/4
f 29/29/4 32/32/4 80/96/4 75/87/4
f 21/21/4 29/29/4 75/87/4 67/76/4
f 32/32/4 16/16/4 64/71/4 80/96/4
f 8/8/4 24/24/4 72/83/4 56/60/4
f 6/6/2 7/7/2 55/58/2 54/56/2
f 7/7/2 15/15/2 63/70/2 55/58/2
f 15/15/2 14/14/2 62/67/2 63/70/2
f 23/23/2 22/22/2 70/79/2 71/82/2
f 31/31/2 23/23/2 71/82/2 79/93/2
f 30/30/2 31/31/2 79/93/2 78/92/2
f 14/14/2 30/30/2 78/92/2 62/67/2
f 22/22/2 6/6/2 54/56/2 70/79/2
f 106/122/11 108/124/11 50/50/11 49/49/11
f 4/4/6 83/99/6 51/52/6 52/53/6
f 85/101/6 4/4/6 52/53/6 53/54/6
f 108/124/11 42/42/11 54/56/11 50/50/11
f 87/103/6 85/101/6 53/54/6 55/58/6
f 104/120/11 106/122/11 49/49/11 56/60/11
f 42/42/11 104/120/11 56/60/11 54/56/11
f 83/99/6 87/103/6 55/58/6 51/52/6
f 10/10/8 9/9/8 58/62/8 57/61/8
f 12/12/12 91/107/12 59/64/12 60/65/12
f 11/11/12 12/12/12 60/65/12 61/66/12
f 9/9/8 44/44/8 62/68/8 58/62/8
f 95/111/12 11/11/12 61/66/12 63/70/12
f 36/36/8 10/10/8 57/61/8 64/72/8
f 44/44/8 36/36/8 64/72/8 62/68/8
f 91/107/12 95/111/12 63/70/12 59/64/12
f 17/17/8 97/113/8 65/73/8 66/74/8
f 99/115/12 100/116/12 68/77/12 67/76/12
f 100/116/12 19/19/12 69/78/12 68/77/12
f 46/46/8 17/17/8 66/74/8 70/80/8
f 19/19/12 103/119/12 71/82/12 69/78/12
f 97/113/8 38/38/8 72/84/8 65/73/8
f 38/38/8 46/46/8 70/80/8 72/84/8
f 103/119/12 99/115/12 67/76/12 71/82/12
f 25/25/11 105/121/11 73/85/11 74/86/11
f 107/123/6 28/28/6 76/89/6 75/88/6
f 28/28/6 27/27/6 77/90/6 76/89/6
f 110/126/11 25/25/11 74/86/11 78/92/11
f 27/27/6 111/127/6 79/94/6 77/90/6
f 105/121/11 112/128/11 80/96/11 73/85/11
f 112/128/11 110/126/11 78/92/11 80/96/11
f 111/127/6 107/123/6 75/88/6 79/94/6
f 83/99/2 4/4/2 2/2/2 3/3/2
f 106/122/4 104/120/4 109/125/4 1/1/4
f 11/11/4 95/111/4 82/98/4 86/102/4
f 9/9/13 10/10/13 35/35/13 34/34/13
f 99/115/13 103/119/13 98/114/13 102/118/13
f 17/17/4 46/46/4 48/48/4 47/47/4
f 27/27/3 28/28/3 41/41/3 40/40/3
f 25/25/4 110/126/4 92/108/4 90/106/4
f 28/28/4 107/123/4 39/39/4 41/41/4
f 107/123/1 111/127/1 37/37/1 39/39/1
f 111/127/2 27/27/2 40/40/2 37/37/2
f 37/37/6 40/40/6 41/41/6 39/39/6
f 38/38/2 97/113/2 43/43/2 45/45/2
f 46/46/5 38/38/5 45/45/5 48/48/5
f 97/113/14 17/17/14 47/47/14 43/43/14
f 47/47/8 48/48/8 45/45/8 43/43/8
f 91/107/2 12/12/2 89/105/2 84/100/2
f 95/111/14 91/107/14 84/100/14 82/98/14
f 12/12/5 11/11/5 86/102/5 89/105/5
f 82/98/12 84/100/12 89/105/12 86/102/12
f 112/128/2 105/121/2 94/110/2 93/109/2
f 105/121/1 25/25/1 90/106/1 94/110/1
f 110/126/15 112/128/15 93/109/15 92/108/15
f 90/106/11 92/108/11 93/109/11 94/110/11
f 19/19/5 100/116/5 101/117/5 96/112/5
f 103/119/2 19/19/2 96/112/2 98/114/2
f 100/116/4 99/115/4 102/118/4 101/117/4
f 98/114/12 96/112/12 101/117/12 102/118/12
f 104/120/15 42/42/15 88/104/15 109/125/15
f 42/42/2 108/124/2 81/97/2 88/104/2
f 81/97/11 1/1/11 109/125/11 88/104/11
f 108/124/1 106/122/1 1/1/1 81/97/1
f 113/129/16 114/131/16 116/134/17 115/133/17
f 115/133/17 116/134/17 118/136/18 117/135/18
f 117/135/18 118/136/18 120/138/19 119/137/19
f 119/137/19 120/138/19 122/140/9 121/139/9
f 121/139/9 122/140/9 124/142/20 123/141/20
f 123/141/20 124/142/20 126/144/21 125/143/21
f 125/143/21 126/144/21 128/146/22 127/145/22
f 127/145/22 128/146/22 130/148/10 129/147/10
f 129/147/10 130/148/10 132/150/23 131/149/23
f 131/149/23 132/150/23 134/152/24 133/151/24
f 133/151/24 134/152/24 136/154/25 135/153/25
f 135/153/25 136/154/25 138/156/7 137/155/7
f 137/155/7 138/156/7 140/158/26 139/157/26
f 139/157/26 140/158/26 142/160/27 141/159/27
f 141/159/27 142/160/27 144/162/28 143/161/28
f 143/161/28 144/162/28 114/132/16 113/130/16
f 122/140/4 120/138/4 145/163/4
f 132/150/4 130/148/4 145/164/4
f 142/160/4 140/158/4 145/165/4
f 118/136/4 116/134/4 145/166/4
f 128/146/4 126/144/4 145/167/4
f 138/156/4 136/154/4 145/168/4
f 124/142/4 122/140/4 145/169/4
f 134/152/4 132/150/4 145/170/4
f 144/162/4 142/160/4 145/171/4
f 120/138/4 118/136/4 145/172/4
f 130/148/4 128/146/4 145/173/4
f 140/158/4 138/156/4 145/174/4
f 116/134/4 114/131/4 145/175/4
f 126/144/4 124/142/4 145/176/4
f 136/154/4 134/152/4 145/177/4
f 114/132/4 144/162/4 145/178/4
